<?xml version="1.0" encoding="utf-8"?>
<!-- Generator: Adobe Illustrator 15.1.0, SVG Export Plug-In . SVG Version: 6.00 Build 0)  -->
<!DOCTYPE svg PUBLIC "-//W3C//DTD SVG 1.1//EN" "http://www.w3.org/Graphics/SVG/1.1/DTD/svg11.dtd">
<svg version="1.1" id="Layer_1" xmlns="http://www.w3.org/2000/svg" xmlns:xlink="http://www.w3.org/1999/xlink" x="0px" y="0px"
	 width="737.5px" height="448.5px" viewBox="26 30.5 737.5 448.5" enable-background="new 26 30.5 737.5 448.5"
	 xml:space="preserve">
<g id="Background">
	<rect fill="#FFFFFF" width="810" height="512"/>
</g>
<g id="Layer_1_1_">
	<g>
		<path fill-opacity="0" stroke="#000000" stroke-linejoin="round" d="M29.188,455.9h123.938v19.989H29.188V455.9"/>
		<text transform="matrix(1 0 0 1 31.187 469.4512)" font-family="'Courier'" font-size="12.993">VIS-for-Pd Hel</text>
		<text transform="matrix(1 0 0 1 140.3457 469.4512)" font-family="'ArialMT'" font-size="12"> </text>
		<text transform="matrix(1 0 0 1 140.3501 469.4512)" font-family="'Courier'" font-size="12.993">p</text>
		<path fill-opacity="0" stroke="#000000" stroke-linejoin="round" d="M29.188,425.915h139.929v19.99H29.188V425.915"/>
		<text transform="matrix(1 0 0 1 31.186 439.4658)" font-family="'Courier'" font-size="12.993">declare -path li</text>
		<text transform="matrix(1 0 0 1 155.939 439.4658)" font-family="'ArialMT'" font-size="12"> </text>
		<text transform="matrix(1 0 0 1 155.9438 439.4658)" font-family="'Courier'" font-size="12.993">b</text>
		<path fill="#FCFCFC" d="M29.188,71.092h24.988v24.987H29.188V71.092z"/>
		<path fill-opacity="0" stroke="#000000" stroke-linecap="square" d="M29.188,71.092h24.988v24.987H29.188V71.092z"/>
		<path fill="#FCFCFC" d="M53.175,83.586L53.175,83.586c0-6.345-5.149-11.494-11.494-11.494c-6.345,0-11.494,5.149-11.494,11.494
			c0,6.345,5.149,11.495,11.494,11.495C48.026,95.081,53.175,89.931,53.175,83.586"/>
		<path fill-opacity="0" stroke="#000000" stroke-linecap="square" d="M53.175,83.586L53.175,83.586
			c0-6.345-5.149-11.494-11.494-11.494c-6.345,0-11.494,5.149-11.494,11.494c0,6.345,5.149,11.495,11.494,11.495
			C48.026,95.081,53.175,89.931,53.175,83.586 M29.188,95.081h6.996v0.999h-6.996V95.081z M29.188,71.092h6.996v0.999h-6.996V71.092
			z"/>
		<text transform="matrix(1 0 0 1 74.165 86.6426)" font-family="'Courier'" font-size="12.993">&lt;= Click to open a symbolic music score from you file system</text>
		<text transform="matrix(1 0 0 1 541.9883 86.6426)" font-family="'ArialMT'" font-size="12"> </text>
		<text transform="matrix(1 0 0 1 542.0068 86.6426)" font-family="'Courier'" font-size="12.993">.</text>
		<path fill-opacity="0" stroke="#000000" stroke-linejoin="round" d="M242.081,455.9h179.91v19.989h-179.91V455.9"/>
		<path fill-opacity="0" stroke="#000000" stroke-linecap="square" d="M242.081,474.89h6.997v1h-6.997V474.89z M242.081,455.9h6.997
			v1.999h-6.997V455.9z M414.994,455.9h6.997v1.999h-6.997V455.9z"/>
		<text transform="matrix(1 0 0 1 244.0801 469.4512)" font-family="'Courier'" font-size="12.993">vis-vertical-interval</text>
		<text transform="matrix(1 0 0 1 407.8184 469.4512)" font-family="'ArialMT'" font-size="12"> </text>
		<text transform="matrix(1 0 0 1 407.8252 469.4512)" font-family="'Courier'" font-size="12.993">s</text>
		<path fill-opacity="0" stroke="#000000" stroke-linejoin="round" d="M444.979,455.9h195.902v19.989H444.979V455.9"/>
		<path fill-opacity="0" stroke="#000000" stroke-linecap="square" d="M444.979,474.89h6.996v1h-6.996V474.89z M444.979,455.9h6.996
			v1.999h-6.996V455.9z M633.885,455.9h6.996v1.999h-6.996V455.9z"/>
		<text transform="matrix(1 0 0 1 446.9785 469.4512)" font-family="'Courier'" font-size="12.993">vis-horizontal-interval</text>
		<text transform="matrix(1 0 0 1 626.3115 469.4512)" font-family="'ArialMT'" font-size="12"> </text>
		<text transform="matrix(1 0 0 1 626.3184 469.4512)" font-family="'Courier'" font-size="12.993">s</text>
		<path fill-opacity="0" stroke="#000000" stroke-linejoin="round" d="M242.081,212.022h79.96l-3.998,3.998v11.994l3.998,3.998
			h-79.96V212.022"/>
		<path fill-opacity="0" stroke="#000000" stroke-linecap="square" d="M242.081,231.012h6.997v1h-6.997V231.012z M242.081,212.022
			h6.997v1.999h-6.997V212.022z"/>
		<text transform="matrix(1 0 0 1 244.0801 225.5732)" font-family="'Courier'" font-size="12.993">beginnin</text>
		<text transform="matrix(1 0 0 1 306.4565 225.5732)" font-family="'ArialMT'" font-size="12"> </text>
		<text transform="matrix(1 0 0 1 306.459 225.5732)" font-family="'Courier'" font-size="12.993">g</text>
		<path fill-opacity="0" stroke="#000000" stroke-linejoin="round" d="M242.081,242.007h31.984l-3.998,3.998v11.994l3.998,3.998
			h-31.984V242.007"/>
		<path fill-opacity="0" stroke="#000000" stroke-linecap="square" d="M242.081,260.997h6.997v0.999h-6.997V260.997z
			 M242.081,242.007h6.997v1.999h-6.997V242.007z"/>
		<text transform="matrix(1 0 0 1 244.0801 255.5576)" font-family="'Courier'" font-size="12.993">en</text>
		<text transform="matrix(1 0 0 1 259.6743 255.5576)" font-family="'ArialMT'" font-size="12"> </text>
		<text transform="matrix(1 0 0 1 259.6748 255.5576)" font-family="'Courier'" font-size="12.993">d</text>
		<path fill-opacity="0" stroke="#000000" stroke-linejoin="round" d="M444.979,401.927h51.975v19.99h-51.975V401.927"/>
		<path fill-opacity="0" stroke="#000000" stroke-linecap="square" d="M444.979,420.917h6.996v1h-6.996V420.917z M444.979,401.927
			h6.996v1.999h-6.996V401.927z M489.957,401.927h6.997v1.999h-6.997V401.927z"/>
		<text transform="matrix(1 0 0 1 446.9785 415.4775)" font-family="'Courier'" font-size="12.993">spigo</text>
		<text transform="matrix(1 0 0 1 485.9648 415.4775)" font-family="'ArialMT'" font-size="12"> </text>
		<text transform="matrix(1 0 0 1 485.9658 415.4775)" font-family="'Courier'" font-size="12.993">t</text>
		<path fill="#FCFCFC" d="M489.957,373.941h14.993v14.992h-14.993V373.941z"/>
		<path fill-opacity="0" stroke="#000000" stroke-linecap="square" d="M489.957,373.941h14.993v14.992h-14.993V373.941z"/>
		<path fill-opacity="0" stroke="#FCFCFC" stroke-linejoin="round" d="M491.956,375.939l11.994,11.994 M491.956,386.934
			l11.994-11.994"/>
		<path fill-opacity="0" stroke="#000000" stroke-linecap="square" d="M489.957,387.934h6.997v1h-6.997V387.934z M489.957,373.941
			h6.997v0.998h-6.997V373.941z"/>
		<path fill-opacity="0" stroke="#000000" stroke-linejoin="round" d="M242.081,411.922h51.974v19.99h-51.974V411.922"/>
		<path fill-opacity="0" stroke="#000000" stroke-linecap="square" d="M242.081,430.912h6.997v1h-6.997V430.912z M242.081,411.922
			h6.997v1.999h-6.997V411.922z M287.058,411.922h6.997v1.999h-6.997V411.922z"/>
		<text transform="matrix(1 0 0 1 244.0801 425.4727)" font-family="'Courier'" font-size="12.993">spigo</text>
		<text transform="matrix(1 0 0 1 283.0654 425.4727)" font-family="'ArialMT'" font-size="12"> </text>
		<text transform="matrix(1 0 0 1 283.0669 425.4727)" font-family="'Courier'" font-size="12.993">t</text>
		<path fill="#FCFCFC" d="M287.058,383.936h14.993v14.993h-14.993V383.936z"/>
		<path fill-opacity="0" stroke="#000000" stroke-linecap="square" d="M287.058,383.936h14.993v14.993h-14.993V383.936z"/>
		<path fill-opacity="0" stroke="#FCFCFC" stroke-linejoin="round" d="M289.057,385.936l11.994,11.993 M289.057,396.929
			l11.994-11.993"/>
		<path fill-opacity="0" stroke="#000000" stroke-linecap="square" d="M287.058,397.929h6.997v1h-6.997V397.929z M287.058,383.936
			h6.997v1h-6.997V383.936z"/>
		<path fill="#FCFCFC" d="M414.994,423.916h14.993v14.993h-14.993V423.916z"/>
		<path fill-opacity="0" stroke="#000000" stroke-linecap="square" d="M414.994,423.916h14.993v14.993h-14.993V423.916z"/>
		<path fill="#FCFCFC" d="M428.987,431.412L428.987,431.412c0-3.586-2.91-6.497-6.496-6.497s-6.497,2.911-6.497,6.497
			s2.911,6.497,6.497,6.497S428.987,434.998,428.987,431.412"/>
		<path fill-opacity="0" stroke="#000000" stroke-linecap="square" d="M428.987,431.412L428.987,431.412
			c0-3.586-2.91-6.497-6.496-6.497s-6.497,2.911-6.497,6.497s2.911,6.497,6.497,6.497S428.987,434.998,428.987,431.412
			 M414.994,437.909h6.997v1h-6.997V437.909z M414.994,423.916h6.997v1h-6.997V423.916z"/>
		<path fill="#FCFCFC" d="M633.885,425.915h14.992v14.992h-14.992V425.915z"/>
		<path fill-opacity="0" stroke="#000000" stroke-linecap="square" d="M633.885,425.915h14.992v14.992h-14.992V425.915z"/>
		<path fill="#FCFCFC" d="M647.878,433.411L647.878,433.411c0-3.586-2.911-6.497-6.497-6.497s-6.496,2.911-6.496,6.497
			s2.91,6.497,6.496,6.497S647.878,436.997,647.878,433.411"/>
		<path fill-opacity="0" stroke="#000000" stroke-linecap="square" d="M647.878,433.411L647.878,433.411
			c0-3.586-2.911-6.497-6.497-6.497s-6.496,2.911-6.496,6.497s2.91,6.497,6.496,6.497S647.878,436.997,647.878,433.411
			 M633.885,439.908h6.996v0.999h-6.996V439.908z M633.885,425.915h6.996v0.999h-6.996V425.915z"/>
		<path fill-opacity="0" stroke="#000000" stroke-linejoin="round" d="M29.188,272.991h219.889v19.991H29.188V272.991"/>
		<path fill-opacity="0" stroke="#000000" stroke-linecap="square" d="M29.188,291.982h6.996v0.998h-6.996V291.982z
			 M242.081,291.982h6.997v0.998h-6.997V291.982z M29.188,272.991h6.996v1.999h-6.996V272.991z M100.152,272.991h6.996v1.999h-6.996
			V272.991z M171.116,272.991h6.997v1.999h-6.997V272.991z M242.081,272.991h6.997v1.999h-6.997V272.991z"/>
		<text transform="matrix(1 0 0 1 31.187 286.543)" font-family="'Courier'" font-size="12.993">VIS-Index-Score 5 beginnin</text>
		<text transform="matrix(1 0 0 1 233.9106 286.543)" font-family="'ArialMT'" font-size="12"> </text>
		<text transform="matrix(1 0 0 1 233.918 286.543)" font-family="'Courier'" font-size="12.993">g</text>
		<path fill-opacity="0" stroke="#000000" stroke-linejoin="round" d="M171.116,132.062h37.982l3.998,3.998v12.993h-41.98V132.062"
			/>
		<path fill-opacity="0" stroke="#000000" stroke-linecap="square" d="M171.116,148.054h6.997v0.999h-6.997V148.054z
			 M171.116,132.062h6.997v1.999h-6.997V132.062z"/>
		<text transform="matrix(1 0 0 1 173.1152 144.6133)" font-family="'Courier'" font-size="12.993">0</text>
		<text transform="matrix(1 0 0 1 233.0859 144.6152)" font-family="'Courier'" font-size="12.993">&lt;= Determine how many events to view in score</text>
		<text transform="matrix(1 0 0 1 583.9541 144.6152)" font-family="'ArialMT'" font-size="12"> </text>
		<text transform="matrix(1 0 0 1 583.9668 144.6152)" font-family="'Courier'" font-size="12.993">.</text>
		<path fill="#FCFCFC" d="M100.152,97.079h24.988v24.988h-24.988V97.079z"/>
		<path fill-opacity="0" stroke="#000000" stroke-linecap="square" d="M100.152,97.079h24.988v24.988h-24.988V97.079z"/>
		<path fill="#FCFCFC" d="M124.14,109.573L124.14,109.573c0-6.345-5.149-11.494-11.494-11.494s-11.495,5.149-11.495,11.494
			c0,6.345,5.15,11.495,11.495,11.495S124.14,115.918,124.14,109.573"/>
		<path fill-opacity="0" stroke="#000000" stroke-linecap="square" d="M124.14,109.573L124.14,109.573
			c0-6.345-5.149-11.494-11.494-11.494s-11.495,5.149-11.495,11.494c0,6.345,5.15,11.495,11.495,11.495
			S124.14,115.918,124.14,109.573 M100.152,121.068h6.996v1h-6.996V121.068z M100.152,97.079h6.996v1h-6.996V97.079z"/>
		<text transform="matrix(1 0 0 1 145.1299 113.6299)" font-family="'Courier'" font-size="12.993">&lt;= Click to peak at score events with default values</text>
		<text transform="matrix(1 0 0 1 550.5771 113.6299)" font-family="'ArialMT'" font-size="12"> </text>
		<text transform="matrix(1 0 0 1 550.5928 113.6299)" font-family="'Courier'" font-size="12.993">.</text>
		<text transform="matrix(1 0 0 1 338.0342 225.5742)" font-family="'Courier'" font-size="12.993">&lt;= Click to view events from &quot;beginning&quot; of score</text>
		<text transform="matrix(1 0 0 1 720.0898 225.5742)" font-family="'ArialMT'" font-size="12"> </text>
		<text transform="matrix(1 0 0 1 720.1055 225.5742)" font-family="'Courier'" font-size="12.993">.</text>
		<text transform="matrix(1 0 0 1 338.0332 255.5586)" font-family="'Courier'" font-size="12.993">&lt;= Click to view events from the &quot;end&quot; of the score</text>
		<text transform="matrix(1 0 0 1 735.6836 255.5586)" font-family="'ArialMT'" font-size="12"> </text>
		<text transform="matrix(1 0 0 1 735.6992 255.5586)" font-family="'Courier'" font-size="12.993">.</text>
		<path fill-opacity="0" stroke="#000000" stroke-linejoin="round" d="M29.188,302.977h123.938v19.989H29.188V302.977"/>
		<path fill-opacity="0" stroke="#000000" stroke-linecap="square" d="M29.188,302.977h6.996v2h-6.996V302.977z"/>
		<text transform="matrix(1 0 0 1 31.187 316.5273)" font-family="'Courier'" font-size="12.993">print DataFram</text>
		<text transform="matrix(1 0 0 1 140.3457 316.5273)" font-family="'ArialMT'" font-size="12"> </text>
		<text transform="matrix(1 0 0 1 140.3501 316.5273)" font-family="'Courier'" font-size="12.993">e</text>
		<path fill-opacity="0" stroke="#000000" stroke-linejoin="round" d="M32.186,96.08v176.911 M245.079,232.012v40.979
			 M245.079,261.997v10.994 M447.978,421.917V455.9 M492.956,388.934v12.993 M245.079,431.912V455.9 M290.057,398.928v12.994
			 M417.993,438.908V455.9 M636.884,440.907V455.9 M32.186,292.982v9.994 M245.079,292.982l202.898,108.944 M245.079,292.982
			v118.939 M174.115,149.053v123.938 M103.151,122.067v150.924"/>
		<text transform="matrix(1 0 0 1 258.0732 160.6064)" font-family="'Courier'" font-size="12.993">The number can be click-and-dragged, or click on the numbe</text>
		<text transform="matrix(1 0 0 1 710.3027 160.6064)" font-family="'ArialMT'" font-size="12"> </text>
		<text transform="matrix(1 0 0 1 710.3203 160.6064)" font-family="'Courier'" font-size="12.993">r</text>
		<text transform="matrix(1 0 0 1 258.0732 176.5977)" font-family="'Courier'" font-size="12.993">field, enter the number on your computer keyboard and hi</text>
		<text transform="matrix(1 0 0 1 694.709 176.5977)" font-family="'ArialMT'" font-size="12"> </text>
		<text transform="matrix(1 0 0 1 694.7266 176.5977)" font-family="'Courier'" font-size="12.993">t</text>
		<text transform="matrix(1 0 0 1 258.0732 192.5908)" font-family="'Courier'" font-size="12.993">enter</text>
		<text transform="matrix(1 0 0 1 297.0586 192.5908)" font-family="'ArialMT'" font-size="12"> </text>
		<text transform="matrix(1 0 0 1 297.0601 192.5908)" font-family="'Courier'" font-size="12.993">.</text>
		<text transform="matrix(1 0 0 1 28.188 40.6641)" font-family="'Courier'" font-size="12.993">----- VIS-for-Pd ----------------------------------------------------------------------------</text>
		<text transform="matrix(1 0 0 1 753.3145 40.6641)" font-family="'ArialMT'" font-size="12"> </text>
		<text transform="matrix(1 0 0 1 753.3438 40.6641)" font-family="'Courier'" font-size="12.993">-</text>
	</g>
</g>
</svg>
